<?xml version="1.0" encoding="UTF-8" standalone="no"?>
<svg
   xmlns:dc="http://purl.org/dc/elements/1.1/"
   xmlns:cc="http://creativecommons.org/ns#"
   xmlns:rdf="http://www.w3.org/1999/02/22-rdf-syntax-ns#"
   xmlns:svg="http://www.w3.org/2000/svg"
   xmlns="http://www.w3.org/2000/svg"
   xmlns:sodipodi="http://sodipodi.sourceforge.net/DTD/sodipodi-0.dtd"
   xmlns:inkscape="http://www.inkscape.org/namespaces/inkscape"
   inkscape:version="1.0 (4035a4fb49, 2020-05-01)"
   height="238.12601"
   width="238.12601"
   sodipodi:docname="power-svgrepo-com.svg"
   xml:space="preserve"
   viewBox="0 0 238.126 238.126"
   y="0px"
   x="0px"
   id="Capa_1"
   version="1.1"><metadata
   id="metadata39"><rdf:RDF><cc:Work
       rdf:about=""><dc:format>image/svg+xml</dc:format><dc:type
         rdf:resource="http://purl.org/dc/dcmitype/StillImage" /><dc:title></dc:title></cc:Work></rdf:RDF></metadata><defs
   id="defs37" /><sodipodi:namedview
   inkscape:current-layer="Capa_1"
   inkscape:window-maximized="1"
   inkscape:window-y="-8"
   inkscape:window-x="-8"
   inkscape:cy="126.62701"
   inkscape:cx="119.063"
   inkscape:zoom="3.5695387"
   units="px"
   showgrid="false"
   id="namedview35"
   inkscape:window-height="1017"
   inkscape:window-width="1920"
   inkscape:pageshadow="2"
   inkscape:pageopacity="0"
   guidetolerance="10"
   gridtolerance="10"
   objecttolerance="10"
   borderopacity="1"
   bordercolor="#666666"
   pagecolor="#ffffff" />
<path
   style="fill:#ffffff"
   id="path2"
   d="m 205.071,98.678 c -1.194,-2.728 -3.891,-4.49 -6.869,-4.49 h -62.33 l 30.023,-84.167 c 1.197,-3.357 -0.134,-7.094 -3.184,-8.938 -3.052,-1.845 -6.979,-1.287 -9.395,1.333 L 34.411,131.355 c -2.019,2.189 -2.551,5.366 -1.355,8.094 1.194,2.728 3.891,4.49 6.869,4.49 h 40.521 c 4.143,0 7.5,-3.358 7.5,-7.5 0,-4.142 -3.357,-7.5 -7.5,-7.5 H 57.043 l 82.365,-89.315 -21.24,59.543 c -0.818,2.297 -0.432,4.849 0.974,6.842 1.405,1.993 3.73,3.178 6.169,3.178 h 55.772 l -82.353,89.305 21.243,-59.533 c 0.82,-2.297 0.472,-4.849 -0.934,-6.842 -1.406,-1.993 -3.691,-3.179 -6.13,-3.179 h -0.074 c -3.525,0 -6.455,2.432 -7.25,5.709 l -33.348,93.456 c -1.198,3.357 0.133,7.094 3.183,8.938 1.205,0.729 2.547,1.083 3.878,1.083 2.039,0 4.055,-0.831 5.517,-2.416 L 203.714,106.77 c 2.02,-2.188 2.552,-5.364 1.357,-8.092 z" />
<g
   id="g4">
</g>
<g
   id="g6">
</g>
<g
   id="g8">
</g>
<g
   id="g10">
</g>
<g
   id="g12">
</g>
<g
   id="g14">
</g>
<g
   id="g16">
</g>
<g
   id="g18">
</g>
<g
   id="g20">
</g>
<g
   id="g22">
</g>
<g
   id="g24">
</g>
<g
   id="g26">
</g>
<g
   id="g28">
</g>
<g
   id="g30">
</g>
<g
   id="g32">
</g>
</svg>
